<?xml version="1.0" encoding="UTF-8"?>
<svg xmlns="http://www.w3.org/2000/svg" version="1.1" viewBox="0 0 24 24">
  <defs>
    <style>
      .cls-1 {
        fill: #5f6368;
      }
    </style>
  </defs>
  <!-- Generator: Adobe Illustrator 28.7.2, SVG Export Plug-In . SVG Version: 1.2.0 Build 154)  -->
  <g>
    <g id="Layer_1">
      <path class="cls-1" d="M2,21.5V4.5c0-.6.2-1,.6-1.4s.9-.6,1.4-.6h16c.6,0,1,.2,1.4.6s.6.9.6,1.4v11c0,.6-.2,1-.6,1.4-.4.4-.9.6-1.4.6H6l-4,4ZM5.2,15.5h14.9V4.5H4v12.1l1.2-1.1ZM4,15.5V4.5v11Z"/>
      <g>
        <path class="cls-1" d="M12,11.2c-.3,0-.5,0-.7-.3s-.3-.4-.3-.7,0-.5.3-.7.4-.3.7-.3.5,0,.7.3c.2.2.3.4.3.7s0,.5-.3.7c-.2.2-.4.3-.7.3Z"/>
        <path class="cls-1" d="M8,11.2c-.3,0-.5,0-.7-.3s-.3-.4-.3-.7,0-.5.3-.7.4-.3.7-.3.5,0,.7.3.3.4.3.7,0,.5-.3.7-.4.3-.7.3Z"/>
        <path class="cls-1" d="M16,11.2c-.3,0-.5,0-.7-.3s-.3-.4-.3-.7,0-.5.3-.7.4-.3.7-.3.5,0,.7.3.3.4.3.7,0,.5-.3.7-.4.3-.7.3Z"/>
      </g>
    </g>
  </g>
</svg>