<?xml version="1.0" encoding="UTF-8"?>
<svg xmlns="http://www.w3.org/2000/svg" version="1.1" viewBox="0 0 24 24">
  <defs>
    <style>
      .cls-1 {
        fill: #5f6368;
      }
    </style>
  </defs>
  <!-- Generator: Adobe Illustrator 28.7.2, SVG Export Plug-In . SVG Version: 1.2.0 Build 154)  -->
  <g>
    <g id="Layer_1">
      <path class="cls-1" d="M16.6,22.5l-3.6-3.6,1.4-1.4,2.1,2.1,4.3-4.3,1.4,1.4-5.6,5.7ZM5,22c-.6,0-1-.2-1.4-.6-.4-.4-.6-.9-.6-1.4V6c0-.6.2-1,.6-1.4.4-.4.9-.6,1.4-.6h1V2h2v2h8V2h2v2h1c.6,0,1,.2,1.4.6s.6.9.6,1.4v6.4l-2,2v-4.4H5v10h6.3l2,2H5ZM5,8h14v-2H5v2ZM5,8v-2,2Z"/>
    </g>
  </g>
</svg>